<?xml version="1.0" standalone="no"?>
<!DOCTYPE svg PUBLIC "-//W3C//DTD SVG 20010904//EN"
 "http://www.w3.org/TR/2001/REC-SVG-20010904/DTD/svg10.dtd">
<svg version="1.0" xmlns="http://www.w3.org/2000/svg"
 width="128.000000pt" height="123.000000pt" viewBox="0 0 128.000000 123.000000"
 preserveAspectRatio="xMidYMid meet">

<g transform="translate(0.000000,123.000000) scale(0.100000,-0.100000)"
fill="#000000" stroke="none">
<path d="M1007 1220 c-35 -9 -97 -37 -97 -44 0 -1 33 -20 74 -40 99 -50 182
-119 231 -190 l40 -58 12 29 c7 15 12 60 13 99 0 94 -27 149 -91 181 -52 26
-129 36 -182 23z"/>
<path d="M126 1205 c-80 -28 -127 -107 -125 -209 1 -55 20 -132 32 -129 4 1
30 36 58 77 59 88 154 178 215 203 24 10 43 23 41 28 -5 15 -97 44 -142 44
-22 0 -57 -6 -79 -14z"/>
<path d="M560 1163 c-165 -27 -325 -147 -397 -296 -44 -89 -56 -157 -51 -278
5 -116 25 -181 80 -263 69 -102 68 -85 6 -162 -61 -74 -61 -76 -6 -115 l29
-21 69 66 69 65 44 -24 c114 -64 320 -74 447 -22 l65 27 30 -32 c17 -18 44
-51 62 -72 l32 -39 40 33 41 32 -22 36 c-12 21 -34 55 -49 77 l-27 40 44 49
c150 170 173 425 58 636 -37 68 -146 171 -223 209 -98 50 -236 72 -341 54z
m199 -58 c189 -45 337 -197 377 -387 64 -301 -174 -588 -487 -588 -215 0 -405
141 -469 348 -111 358 217 712 579 627z"/>
<path d="M580 765 l0 -195 90 0 90 0 0 50 0 50 -40 0 -40 0 0 145 0 145 -50 0
-50 0 0 -195z"/>
</g>
</svg>
