<?xml version="1.0" standalone="no"?>
<!DOCTYPE svg PUBLIC "-//W3C//DTD SVG 20010904//EN"
 "http://www.w3.org/TR/2001/REC-SVG-20010904/DTD/svg10.dtd">
<svg version="1.0" xmlns="http://www.w3.org/2000/svg"
 width="112.000000pt" height="133.000000pt" viewBox="0 0 112.000000 133.000000"
 preserveAspectRatio="xMidYMid meet">

<g transform="translate(0.000000,133.000000) scale(0.100000,-0.100000)"
fill="#000000" stroke="none">
<path d="M134 1311 c-23 -10 -53 -34 -67 -53 -56 -73 -57 -85 -64 -590 l-6
-466 27 -57 c18 -36 43 -67 69 -86 77 -55 106 -59 495 -59 l355 0 42 25 c46
26 80 67 114 132 20 41 21 53 20 395 0 440 -8 565 -39 636 -22 52 -73 106
-114 121 -11 5 -194 11 -406 15 -365 6 -387 5 -426 -13z m687 -155 c52 -13
111 -31 132 -39 l37 -16 0 -100 0 -101 -419 0 -418 0 -7 61 c-3 34 -6 79 -6
100 0 36 2 38 53 57 201 74 430 88 628 38z m-498 -456 c84 -94 -38 -230 -143
-158 -65 44 -65 132 0 176 48 32 104 25 143 -18z m315 8 c8 -7 21 -28 29 -46
29 -70 -23 -142 -102 -142 -128 0 -152 175 -28 209 31 9 76 -1 101 -21z m325
-6 c49 -49 36 -136 -25 -168 -94 -49 -198 45 -153 139 33 70 122 85 178 29z
m-640 -292 c76 -85 -18 -213 -124 -169 -35 14 -69 62 -69 97 0 99 126 147 193
72z m305 14 c13 -9 30 -31 38 -51 30 -71 -21 -143 -101 -143 -52 0 -89 27
-105 75 -10 30 -9 41 7 73 32 66 100 85 161 46z m332 1 c74 -67 21 -191 -82
-189 -44 2 -92 39 -103 81 -8 35 12 89 43 114 22 17 37 20 75 16 26 -2 56 -12
67 -22z"/>
</g>
</svg>
