<?xml version="1.0" standalone="no"?>
<!DOCTYPE svg PUBLIC "-//W3C//DTD SVG 20010904//EN"
 "http://www.w3.org/TR/2001/REC-SVG-20010904/DTD/svg10.dtd">
<svg version="1.0" xmlns="http://www.w3.org/2000/svg"
 width="109.000000pt" height="134.000000pt" viewBox="0 0 109.000000 134.000000"
 preserveAspectRatio="xMidYMid meet">

<g transform="translate(0.000000,134.000000) scale(0.100000,-0.100000)"
fill="#000000" stroke="none">
<path d="M870 675 l0 -665 110 0 110 0 0 665 0 665 -110 0 -110 0 0 -665z"/>
<path d="M290 737 c0 -173 3 -409 7 -525 l6 -212 105 0 105 0 -6 317 c-4 174
-7 410 -7 525 l0 208 -105 0 -105 0 0 -313z"/>
<path d="M580 431 l0 -419 101 -7 c55 -4 102 -6 104 -4 1 2 6 194 10 427 l8
422 -112 0 -111 0 0 -419z"/>
<path d="M0 315 l0 -315 110 0 110 0 0 315 0 315 -110 0 -110 0 0 -315z"/>
</g>
</svg>
