<?xml version="1.0" standalone="no"?>
<!DOCTYPE svg PUBLIC "-//W3C//DTD SVG 20010904//EN"
 "http://www.w3.org/TR/2001/REC-SVG-20010904/DTD/svg10.dtd">
<svg version="1.0" xmlns="http://www.w3.org/2000/svg"
 width="168.000000pt" height="144.000000pt" viewBox="0 0 168.000000 144.000000"
 preserveAspectRatio="xMidYMid meet">

<g transform="translate(0.000000,144.000000) scale(0.100000,-0.100000)"
fill="#000000" stroke="none">
<path d="M760 1430 c-151 -3 -283 -9 -292 -13 -37 -19 -48 -53 -48 -152 l0
-96 403 7 c442 8 439 8 486 -52 20 -26 21 -37 21 -390 l0 -364 126 0 c131 0
150 5 197 48 l27 26 0 443 c0 491 0 493 -63 531 -33 21 -43 22 -308 20 -151
-1 -398 -5 -549 -8z m845 -432 c4 -57 5 -125 3 -153 -3 -47 -5 -50 -30 -49
-16 0 -73 1 -128 2 l-100 2 0 113 c0 61 3 129 6 150 l7 37 117 0 118 0 7 -102z
m0 -360 c4 -51 5 -120 3 -153 l-3 -60 -95 -3 c-52 -2 -110 0 -127 3 l-33 6 0
103 c0 57 3 124 6 150 l7 46 117 0 118 0 7 -92z"/>
<path d="M63 1075 c-68 -29 -66 -14 -58 -523 8 -510 6 -496 78 -531 37 -19 61
-19 570 -14 443 4 536 8 555 20 50 31 52 49 52 529 l0 447 -44 43 -43 44 -539
0 c-436 -1 -545 -3 -571 -15z m317 -334 c0 -59 3 -136 6 -170 l7 -61 -162 0
-161 0 0 170 0 170 155 0 155 0 0 -109z m460 -66 l0 -175 -205 0 -205 0 0 175
0 175 205 0 205 0 0 -175z m358 -7 l2 -168 -155 0 -155 0 0 170 0 171 153 -3
152 -3 3 -167z m-808 -408 l0 -170 -155 0 -155 0 0 170 0 170 155 0 155 0 0
-170z m450 -5 l0 -175 -205 0 -205 0 0 175 0 175 205 0 205 0 0 -175z m360 5
l0 -170 -155 0 -155 0 0 170 0 170 155 0 155 0 0 -170z"/>
</g>
</svg>
