<svg id="Layer_2" data-name="Layer 2" xmlns="http://www.w3.org/2000/svg" viewBox="0 0 142.63 136.59"><defs><style>.cls-1{fill:#71c6de;}.cls-2{fill:#fff;}.cls-3{fill:#fc611f;}.cls-4{fill:#b6f0ff;}.cls-5{fill:#e34e10;}</style></defs><title>exame bete1</title><polygon class="cls-1" points="0 135.64 12.85 136.59 36.18 112.08 29.99 106.13 0 135.64"/><path class="cls-2" d="M247.11,432.63s4.17,29.75,35.49,35.61l52.74-51.38,10.93,10.82,5.52-5.41-16.45-16,18.59-18.48,9.24,8.9,5.74-5.41-43.83-43.94-5.52,5,9,9.69-18.15,18.48-16.9-16.34-5.63,5,11.15,11.38Z" transform="translate(-226.28 -347.34)"/><path class="cls-3" d="M257.36,430.8l-3.82,4.05s4,19.34,27,26.63l24.55-24-19.92-20.26-1.62,1.51-6.25-6.6L272,417.37l6,6.25-3.71,3.94-6.13-5.79-5.68,5.67,6,6L264.54,438Z" transform="translate(-226.28 -347.34)"/><polygon class="cls-1" points="27.02 79.18 31.07 75.36 42.19 86.12 38.25 90.64 27.02 79.18"/><polygon class="cls-1" points="36.63 69.68 40.45 65.63 51.22 76.05 47.98 80.22 36.63 69.68"/><polygon class="cls-1" points="46.82 60.07 50.41 56.37 61.18 66.9 57.24 71.42 46.82 60.07"/><polygon class="cls-1" points="56.08 49.88 60.37 45.83 71.71 57.53 66.96 61.69 56.08 49.88"/><path class="cls-4" d="M264.31,452.1l-4.06,3.36s7.07,9.38,19.22,8.1C279.47,463.56,265.81,456,264.31,452.1Z" transform="translate(-226.28 -347.34)"/><polygon class="cls-4" points="65.69 77.09 78.77 90.17 104.13 64.82 115.47 75.47 120.91 70.38 103.89 54.17 117.79 40.39 122.77 45.25 127.28 40.16 132.26 44.79 137.82 39.12 120.1 21.52 115.13 26.96 102.29 14.65 97.18 20.02 110.03 32.4 65.69 77.09"/><path class="cls-5" d="M264.31,452.1l27.15-27.81,13.6,13.22-24.55,24S277.87,463,264.31,452.1Z" transform="translate(-226.28 -347.34)"/></svg>