<svg id="Layer_1" data-name="Layer 1" xmlns="http://www.w3.org/2000/svg" viewBox="0 0 153.38 182.15"><defs><style>.cls-1{fill:#fff;}.cls-1,.cls-2,.cls-3{stroke:#000;stroke-miterlimit:10;}.cls-2{fill:#fffef9;}.cls-3{fill:#c2693a;}.cls-4{fill:#d03d00;}.cls-5{fill:#fbf5f5;}.cls-6{fill:#eb4a2f;}</style></defs><title>medicamentos bete1</title><path class="cls-1" d="M267,131.89" transform="translate(-239.85 -284.44)"/><path class="cls-2" d="M255.91,288.88l.14,24.9s.26,4.07,3.93,3.81l66.2.39a5.28,5.28,0,0,0,4.72-3.93l.13-24.39a5.08,5.08,0,0,0-5.38-4.45l-64.75-.27S256.44,285.34,255.91,288.88Z" transform="translate(-239.85 -284.44)"/><path class="cls-2" d="M240.35,331.05v90.73s.94,8.89,11.69,11.23h83.48s6.79.93,11-10.29v-90s-1.87-11.93-11-11.46l-83.95-.47S242.45,320.76,240.35,331.05Z" transform="translate(-239.85 -284.44)"/><polygon class="cls-3" points="12.43 48.01 12.89 136.41 94.04 136.41 94.74 48.48 12.43 48.01"/><polygon class="cls-1" points="23.88 70.69 24.12 113.72 83.05 113.49 83.05 71.16 23.88 70.69"/><polygon class="cls-4" points="47.5 74.44 47.74 85.89 35.58 85.66 35.81 96.42 47.97 96.42 47.97 109.98 57.32 110.21 57.32 96.42 69.72 96.42 69.95 86.36 57.56 86.36 57.32 74.67 47.5 74.44"/><path class="cls-5" d="M392.36,442.58s3.87,7.6-5.76,10.88L375,446.8l-.44-.25-12.16-6.95s-2.48-9.46,6-10.75l12.28,7Z" transform="translate(-239.85 -284.44)"/><path class="cls-6" d="M380.68,436l-6.11,10.68,12.1,6.92s9.31-2.58,5.76-10.88Z" transform="translate(-239.85 -284.44)"/><path class="cls-5" d="M378.65,455.05s3.69,8.51-7,11.43l-12.21-8-.47-.31-12.73-8.35s-2.07-10.44,7.21-11.28L366.34,447Z" transform="translate(-239.85 -284.44)"/><path class="cls-6" d="M366.4,447.09l-7.34,11.19,12.68,8.32s10.27-2.18,7-11.43Z" transform="translate(-239.85 -284.44)"/></svg>