<svg id="Layer_1" data-name="Layer 1" xmlns="http://www.w3.org/2000/svg" viewBox="0 0 138.73 121.01"><defs><style>.cls-1{fill:#f8c228;}.cls-2{fill:#217f91;}.cls-3{fill:#f5c12b;}.cls-4{fill:#f4c51d;}.cls-5{fill:#efb33b;}</style></defs><title>refeições bete1</title><circle class="cls-1" cx="72.52" cy="58.1" r="49.61"/><circle class="cls-2" cx="72.52" cy="58.34" r="35.5"/><circle class="cls-3" cx="72.79" cy="58.44" r="30.83"/><path class="cls-4" d="M231.77,477.73s4.9,7.48,9.88-.17l-2.4-51.2s-.63-17-.09-18.79c0,0,0-3.74,1.25-5.34,0,0,5.16-4.54,5-7.3l.54-33.21s-1.16-.81-1.87.08l-.27,24.4s-1.69,1.25-2.94.09v-24.4a1.24,1.24,0,0,0-1.87,0l-.36,23.87a2.79,2.79,0,0,1-3.82.17l.08-24.3s-1.78-1.16-2.31.17l-.18,23.69s-1.24,2.31-2.58-.09V362a1.64,1.64,0,0,0-2.32,0l.09,29.74s.72,5.17,3.57,7.48c0,0,3,2.85,2.58,6.15,0,0,1.07,10.77.71,16.91Z" transform="translate(-227.49 -361.16)"/><path class="cls-5" d="M361.59,415.68s-5.08,57.85-4.13,59.44a7,7,0,0,0,3.2,6.7s4.41,1.57,5.56-2V363s-1.82-3.25-4.55-.39c0,0-5.85,14-6,26.26C355.68,388.87,356.58,409.59,361.59,415.68Z" transform="translate(-227.49 -361.16)"/></svg>