<?xml version="1.0" standalone="no"?>
<!DOCTYPE svg PUBLIC "-//W3C//DTD SVG 20010904//EN"
 "http://www.w3.org/TR/2001/REC-SVG-20010904/DTD/svg10.dtd">
<svg version="1.0" xmlns="http://www.w3.org/2000/svg"
 width="172.000000pt" height="172.000000pt" viewBox="0 0 172.000000 172.000000"
 preserveAspectRatio="xMidYMid meet">
<metadata>
Created by potrace 1.15, written by Peter Selinger 2001-2017
</metadata>
<g transform="translate(0.000000,172.000000) scale(0.100000,-0.100000)"
fill="#000000" stroke="none">
<path d="M1325 1685 c-17 -9 -91 -76 -165 -151 l-135 -136 81 -76 c45 -42 131
-123 191 -179 l109 -102 148 148 c131 132 148 152 153 188 3 26 0 52 -11 74
-19 40 -212 224 -251 239 -37 14 -85 12 -120 -5z m210 -132 c167 -152 167
-146 -3 -316 l-127 -127 -153 141 c-83 78 -152 145 -152 149 0 3 56 61 123
128 118 117 126 122 165 122 39 0 49 -7 147 -97z"/>
<path d="M559 921 l-453 -459 -53 -204 c-29 -111 -52 -213 -50 -224 2 -21 4
-21 247 27 l245 48 442 448 c243 246 442 450 443 453 0 9 -343 365 -356 368
-6 2 -215 -204 -465 -457z m726 121 l27 -32 -250 -258 c-138 -141 -325 -331
-416 -421 -151 -151 -166 -163 -183 -150 -10 7 -79 68 -153 133 -74 66 -139
123 -143 126 -4 4 186 203 423 443 l430 435 119 -121 c65 -67 131 -137 146
-155z m-981 -782 l129 -114 -184 -36 c-101 -20 -185 -33 -187 -29 -3 7 50 227
69 287 13 39 -4 49 173 -108z"/>
</g>
</svg>
